<svg version="1.0" xmlns="http://www.w3.org/2000/svg"
     width="40" height="40" viewBox="0 0 512.000000 512.000000"
     preserveAspectRatio="xMidYMid meet">
    <g transform="translate(0.000000,512.000000) scale(0.100000,-0.100000)"
       fill="#FF8A6D" stroke="none">
        <path d="M3171 4386 c-6 -8 -18 -48 -25 -90 -7 -42 -16 -79 -19 -82 -3 -3 -28
-1 -56 5 -86 18 -82 26 -106 -183 -8 -77 -17 -142 -20 -144 -2 -2 -33 -1 -69
3 l-65 7 -3 116 -3 117 -90 0 -90 0 -3 -107 -3 -108 -79 0 -80 0 0 39 c0 47
-16 62 -66 61 -22 -1 -88 8 -149 19 -139 26 -135 30 -136 -133 0 -93 -3 -115
-11 -96 -21 52 -25 55 -69 55 l-44 0 -41 145 -40 145 -45 -1 c-74 -3 -129 -22
-129 -45 0 -11 20 -96 45 -188 24 -93 46 -183 47 -202 3 -30 0 -34 -22 -34
-20 0 -27 8 -41 44 -20 54 -32 61 -94 51 -27 -5 -71 -9 -96 -9 -25 -1 -54 -7
-64 -15 -21 -15 -22 -11 46 -425 33 -208 36 -236 22 -246 -13 -10 -13 -24 -4
-106 6 -52 32 -301 56 -554 108 -1112 153 -1512 174 -1560 10 -22 37 -57 59
-77 39 -35 40 -38 18 -38 -13 0 -26 -6 -29 -14 -8 -20 81 -25 631 -32 328 -5
472 -3 472 4 0 6 -12 13 -27 15 -17 2 -9 5 20 6 33 1 46 -3 41 -10 -4 -8 -1
-8 13 -1 11 6 60 12 111 14 54 1 86 6 79 11 -8 6 -4 7 10 4 12 -3 21 -2 20 2
-1 4 16 23 37 42 51 44 72 96 81 194 3 44 13 127 21 185 19 141 90 930 109
1210 15 215 38 503 52 638 5 59 4 64 -16 69 -13 3 -21 13 -21 27 0 29 34 236
72 441 28 148 36 177 66 222 48 73 42 90 -43 135 -104 56 -112 53 -150 -62
l-32 -95 -34 3 c-19 2 -37 7 -41 10 -7 7 4 84 53 364 17 98 28 186 25 196 -5
13 -32 26 -101 45 -110 31 -109 31 -124 13z m128 -77 c18 -6 31 -18 31 -28 0
-32 -79 -487 -100 -578 -15 -63 -26 -93 -36 -93 -8 0 -14 6 -14 14 0 23 29
295 41 389 11 80 10 89 -6 107 -11 12 -31 20 -49 20 -51 0 -106 12 -106 23 0
6 19 8 49 4 60 -7 76 4 91 63 14 54 35 90 54 90 7 0 27 -5 45 -11z m-261 -151
c-6 -18 -28 -21 -28 -4 0 9 7 16 16 16 9 0 14 -5 12 -12z m-1116 -188 c21 -74
44 -140 50 -147 6 -7 30 -13 53 -13 l43 0 11 -50 c6 -28 14 -75 17 -104 7 -61
3 -65 -74 -68 -36 -1 -48 4 -78 33 -38 37 -81 107 -91 148 -3 14 -23 90 -44
168 -22 78 -39 144 -39 147 0 9 63 25 89 23 21 -2 27 -14 63 -137z m853 -37
c8 -158 -2 -689 -14 -793 l-6 -55 -59 -3 -59 -3 6 183 c4 101 10 328 14 506
l6 322 53 0 52 0 7 -157z m413 142 c5 -4 -38 -447 -44 -456 -2 -4 -12 -5 -23
-2 -30 8 -48 -22 -55 -89 -11 -107 -47 -402 -52 -425 -3 -18 -11 -23 -34 -23
-29 0 -30 2 -30 43 0 72 52 652 75 838 7 59 16 112 19 118 6 9 133 5 144 -4z
m-925 -91 l37 -7 0 -132 c0 -73 -3 -147 -6 -164 -6 -30 -9 -31 -55 -31 -41 0
-51 -4 -65 -25 -33 -50 -54 -18 -54 81 0 38 4 46 25 54 24 9 25 12 25 113 0
57 3 107 7 110 8 9 37 9 86 1z m137 -44 c0 -19 -5 -30 -14 -30 -20 0 -26 12
-19 38 8 33 33 27 33 -8z m1149 -71 c60 -25 63 -40 21 -91 -26 -31 -35 -61
-69 -227 -22 -105 -47 -232 -56 -283 -8 -51 -20 -114 -26 -140 l-11 -48 -50 0
-51 0 7 93 c24 352 22 369 -28 378 -23 5 -31 75 -9 83 7 3 13 14 13 24 0 31
24 43 77 40 44 -3 48 -1 51 20 2 16 8 22 18 18 9 -4 14 1 14 14 0 29 32 140
40 140 4 0 30 -10 59 -21z m-929 -49 c0 -37 -2 -40 -28 -40 -16 0 -32 8 -40
20 -8 14 -23 20 -47 20 -23 0 -35 5 -35 13 0 23 11 27 82 27 l68 0 0 -40z
m-218 -7 l3 -38 59 -3 59 -3 -8 -257 c-10 -348 -16 -434 -33 -423 -8 5 -21 82
-37 222 -29 250 -41 313 -67 335 -15 14 -18 32 -18 104 0 48 3 90 7 93 17 18
32 4 35 -30z m506 17 c8 0 12 -17 12 -53 0 -29 5 -58 10 -63 8 -8 2 -103 -20
-316 -16 -168 -30 -308 -30 -311 0 -4 -16 -7 -36 -7 l-37 0 6 78 c4 42 10 156
14 252 4 96 10 157 13 136 3 -22 11 -41 18 -44 11 -3 13 9 8 59 -3 35 -8 113
-12 173 l-6 109 23 -6 c13 -4 30 -7 37 -7z m-1198 -146 c10 -30 10 -39 -2 -51
-13 -12 -13 -23 -2 -76 16 -73 18 -124 5 -131 -11 -7 -8 -214 4 -293 l8 -53
-36 0 c-42 0 -33 -33 -86 310 -22 140 -43 269 -47 287 -6 31 -5 32 32 36 108
11 111 10 124 -29z m894 -16 c-2 -29 -7 -173 -10 -320 -5 -219 -9 -268 -20
-268 -12 0 -13 25 -9 143 3 78 8 222 11 320 5 137 9 177 19 177 10 0 12 -14 9
-52z m-257 -44 c-3 -4 -32 -9 -64 -13 -40 -4 -59 -11 -61 -21 -2 -12 11 -15
70 -15 l73 0 26 -240 c15 -132 25 -243 22 -247 -2 -5 -33 -8 -68 -8 -61 0 -64
1 -69 28 -16 73 -57 356 -62 429 l-7 82 39 4 c69 7 107 7 101 1z m-483 -31
c32 -109 100 -488 90 -505 -3 -4 -43 -8 -89 -8 -83 0 -83 0 -89 28 -15 77 -18
123 -7 135 17 21 11 102 -15 209 -13 53 -24 108 -24 122 0 26 -1 26 107 34 13
1 24 -5 27 -15z m70 -119 c9 -53 15 -98 13 -100 -2 -3 -12 37 -22 88 -10 51
-22 104 -27 118 -7 22 -7 23 5 8 8 -9 21 -61 31 -114z m1246 80 c0 -2 -11 -4
-25 -4 -14 0 -25 4 -25 9 0 4 11 6 25 3 14 -2 25 -6 25 -8z m-1041 -63 c8 -15
81 -377 81 -403 0 -5 -34 -8 -75 -8 -69 0 -75 2 -80 23 -18 84 -65 381 -60
385 5 5 57 15 112 21 7 0 17 -7 22 -18z m1126 -73 c-11 -130 -35 -321 -41
-329 -3 -5 -39 -9 -81 -9 l-75 0 6 33 c3 17 15 104 27 192 11 88 23 166 25
173 2 8 26 12 75 12 l71 0 -7 -72z m-1308 -90 c-3 -8 -6 -5 -6 6 -1 11 2 17 5
13 3 -3 4 -12 1 -19z m1330 -45 c-3 -10 -5 -4 -5 12 0 17 2 24 5 18 2 -7 2
-21 0 -30z m-10 -85 c-3 -7 -5 -2 -5 12 0 14 2 19 5 13 2 -7 2 -19 0 -25z
m158 -179 c4 -5 4 -37 0 -70 l-7 -59 -103 0 c-110 0 -117 -3 -152 -56 -14 -21
-23 -24 -83 -24 -60 0 -69 3 -75 20 -3 11 -18 29 -32 40 -24 18 -40 20 -201
20 l-175 0 -37 -40 -37 -40 -144 0 -145 0 -38 39 c-37 38 -41 40 -90 34 -41
-4 -58 -12 -84 -39 -31 -32 -37 -34 -100 -34 -66 0 -68 1 -86 34 -21 40 -37
46 -128 46 l-68 0 0 34 c0 18 -3 48 -6 65 l-6 31 823 3 c453 1 856 3 896 5 42
1 75 -2 78 -9z m-475 -254 c0 -60 3 -73 14 -69 8 3 17 16 20 30 6 23 10 24 95
24 l88 0 32 40 32 40 89 0 90 0 0 -28 c0 -15 -7 -110 -16 -212 -17 -207 -20
-214 -101 -250 -56 -25 -55 -33 2 -13 25 8 52 25 60 36 11 16 15 17 15 6 0
-21 -39 -56 -72 -64 -30 -8 -33 -15 -43 -99 -9 -74 -36 -106 -93 -106 -51 0
-62 14 -62 81 0 64 -16 89 -55 89 -12 0 -33 8 -46 19 -19 15 -23 30 -27 87 -4
84 -15 108 -57 129 -50 23 -87 19 -130 -15 -31 -24 -47 -30 -88 -30 -45 0 -53
3 -82 38 l-33 37 -76 -3 c-75 -3 -78 -2 -104 28 l-26 30 -161 0 -161 0 -33
-34 -32 -33 28 -6 c17 -3 34 0 44 9 22 19 281 20 297 1 9 -10 16 -227 12 -346
0 -18 -137 -11 -149 8 -5 7 -11 61 -15 121 -7 125 -12 143 -35 136 -9 -3 -23
-1 -30 4 -12 7 -8 10 15 17 19 5 -22 10 -130 13 l-158 5 -37 43 c-20 23 -39
42 -42 42 -2 0 -2 -35 2 -77 17 -192 71 -773 85 -918 8 -87 20 -165 26 -172
14 -17 37 -17 44 1 5 14 -39 443 -61 596 -4 26 -41 328 -49 393 l-4 37 89 0
c49 0 89 -3 89 -7 0 -66 74 -821 82 -830 6 -7 19 -13 29 -13 24 0 24 0 -1 270
-24 263 -40 481 -40 538 0 38 2 42 26 42 23 0 24 -1 9 -16 -13 -14 -15 -31
-10 -103 8 -101 20 -141 45 -141 10 0 25 -11 34 -25 9 -14 22 -25 29 -25 36
-1 38 -14 56 -358 16 -300 20 -344 36 -362 17 -19 31 -20 192 -20 l173 0 0
-50 c0 -41 5 -56 25 -75 22 -23 32 -25 107 -25 46 0 90 4 98 10 10 6 15 32 18
82 1 40 12 226 22 413 11 187 20 367 20 400 0 77 10 93 47 79 24 -8 29 -16 34
-60 8 -65 22 -90 61 -110 l31 -16 -7 -127 c-3 -69 -9 -157 -13 -194 -5 -62 -4
-69 13 -73 19 -5 19 -9 8 -127 -18 -177 -18 -246 2 -254 8 -3 19 -2 24 3 9 9
28 204 55 584 l16 215 34 35 c39 40 55 77 55 125 0 24 7 37 26 50 14 9 27 15
28 13 5 -5 -91 -1044 -99 -1067 -20 -63 -196 -90 -631 -98 -210 -4 -373 -2
-470 6 -265 21 -335 38 -354 84 -5 12 -16 94 -25 182 -8 88 -24 243 -35 345
-11 102 -38 365 -60 585 -22 220 -43 426 -46 458 l-6 57 61 0 c60 0 61 -1 87
-40 l27 -40 90 0 90 0 43 40 c26 24 53 40 68 40 16 0 38 -14 62 -40 l37 -40
175 0 c172 0 174 0 193 -24 18 -23 21 -24 181 -22 161 1 163 1 166 24 l3 22
-155 0 c-132 0 -156 -2 -156 -15 0 -8 -4 -15 -10 -15 -6 0 -10 27 -10 60 l0
60 175 0 175 0 0 -75z m-363 -321 c24 -30 37 -37 76 -41 l47 -6 -1 -81 c-2
-279 -26 -827 -37 -838 -16 -16 -81 -15 -91 0 -4 7 -11 171 -14 365 -4 194
-10 381 -14 417 l-7 65 -8 -40 c-5 -22 -11 -212 -15 -423 -3 -210 -9 -385 -13
-387 -4 -3 -39 -8 -78 -11 -62 -6 -71 -5 -80 12 -5 11 -12 98 -16 194 -3 96
-9 235 -13 308 l-6 132 38 0 c71 0 75 11 75 195 0 89 3 165 7 168 3 4 32 7 64
7 54 0 59 -2 86 -36z m305 9 c15 -14 18 -32 18 -117 -1 -56 -5 -162 -10 -236
-5 -74 -16 -281 -25 -460 -9 -179 -19 -335 -21 -348 -4 -21 -9 -23 -62 -20
l-57 3 3 75 c1 41 11 297 22 569 l20 495 30 28 c36 32 56 35 82 11z m-957
-1366 c137 -30 315 -42 625 -41 310 1 473 13 629 50 35 8 66 12 68 10 3 -3 0
-51 -6 -108 -12 -111 -24 -137 -79 -174 -41 -28 -150 -33 -747 -31 l-470 2
-38 24 c-51 31 -73 79 -81 180 -4 46 -10 90 -13 99 -5 12 -1 14 18 10 13 -3
56 -13 94 -21z m122 -363 c-3 -3 -12 -4 -19 -1 -8 3 -5 6 6 6 11 1 17 -2 13
-5z m181 -1 c-15 -2 -42 -2 -60 0 -18 2 -6 4 27 4 33 0 48 -2 33 -4z m155 0
c-24 -2 -62 -2 -85 0 -24 2 -5 4 42 4 47 0 66 -2 43 -4z"/>
        <path d="M3156 3989 c-4 -28 -5 -53 -3 -56 3 -2 8 19 12 47 4 28 5 53 2 56 -2
3 -7 -19 -11 -47z"/>
        <path d="M2818 1388 c-19 -7 -30 -19 -36 -41 -8 -31 -7 -32 26 -35 19 -2 36
-1 39 1 2 3 3 23 1 44 -3 39 -4 40 -30 31z"/>
        <path d="M1909 983 c-11 -12 -10 -20 2 -41 l15 -27 627 -3 627 -2 12 26 c9 18
9 30 1 42 -9 16 -63 17 -641 19 -554 1 -632 0 -643 -14z m61 3 c0 -3 -4 -8
-10 -11 -5 -3 -10 -1 -10 4 0 6 5 11 10 11 6 0 10 -2 10 -4z"/>
    </g>

    <defs>
        <linearGradient id="paint0_linear" x1="2.94192" y1="4.89955" x2="37.7772" y2="39.7345"
                        gradientUnits="userSpaceOnUse">
            <stop offset="0.15937" stop-color="#3BEA62"/>
            <stop offset="0.5404" stop-color="#3C99CC"/>
            <stop offset="0.93739" stop-color="#6B57FF"/>
        </linearGradient>
    </defs>
</svg>